<svg width="32" height="32" viewBox="0 0 32 32" fill="none" xmlns="http://www.w3.org/2000/svg">
<g clip-path="url(#clip0_459_1532)">
<circle cx="16" cy="16" r="16" fill="white"/>
<path d="M11.896 14.176L7.128 22.08H6.504L5.24 12.016C5.18667 11.6107 5.06933 11.344 4.888 11.216C4.70667 11.0773 4.536 11.0027 4.376 10.992L4.44 10.672C4.696 10.6827 5.00533 10.6933 5.368 10.704C5.73067 10.7147 6.09867 10.72 6.472 10.72C6.87733 10.72 7.25067 10.7147 7.592 10.704C7.93333 10.6933 8.21067 10.6827 8.424 10.672L8.36 10.992C8.01867 11.0133 7.77867 11.1093 7.64 11.28C7.50133 11.44 7.45333 11.792 7.496 12.336L8.344 19.728L7.976 20.064L11.768 13.776L11.896 14.176ZM17.496 13.072C17.784 12.5173 17.9333 12.096 17.944 11.808C17.9547 11.52 17.848 11.3173 17.624 11.2C17.4 11.0827 17.0747 11.0133 16.648 10.992L16.728 10.672C16.888 10.6827 17.0853 10.6933 17.32 10.704C17.5653 10.704 17.8107 10.7093 18.056 10.72C18.312 10.72 18.536 10.72 18.728 10.72C18.984 10.72 19.2027 10.7147 19.384 10.704C19.576 10.6933 19.7573 10.6827 19.928 10.672L19.848 10.992C19.656 11.0453 19.464 11.12 19.272 11.216C19.0907 11.312 18.8987 11.4667 18.696 11.68C18.504 11.8933 18.3067 12.1973 18.104 12.592L13.128 22.08H12.504L11.048 12.016C10.9947 11.6213 10.8987 11.3547 10.76 11.216C10.6213 11.0773 10.4827 11.0027 10.344 10.992L10.408 10.672C10.6427 10.6827 10.9253 10.6933 11.256 10.704C11.5973 10.7147 11.9387 10.72 12.28 10.72C12.76 10.72 13.2027 10.7147 13.608 10.704C14.024 10.6933 14.36 10.6827 14.616 10.672L14.552 10.992C14.0187 11.0133 13.6613 11.104 13.48 11.264C13.2987 11.424 13.24 11.7813 13.304 12.336L14.312 19.504L13.944 19.824L17.496 13.072ZM25.1773 10.688C26.3506 10.688 27.2039 10.88 27.7373 11.264C28.2706 11.6373 28.5373 12.144 28.5373 12.784C28.5373 13.3387 28.3613 13.84 28.0093 14.288C27.6679 14.736 27.1986 15.1147 26.6013 15.424C26.0039 15.7227 25.3266 15.9307 24.5693 16.048C25.6999 16.1333 26.5266 16.4107 27.0493 16.88C27.5826 17.3493 27.8493 17.9093 27.8493 18.56C27.8493 19.136 27.7106 19.6373 27.4333 20.064C27.1666 20.4907 26.7986 20.848 26.3293 21.136C25.8706 21.424 25.3319 21.6427 24.7133 21.792C24.0946 21.9307 23.4386 22 22.7453 22C22.3826 22 21.9826 21.9947 21.5453 21.984C21.1186 21.9627 20.5906 21.952 19.9613 21.952C19.6946 21.952 19.4173 21.9573 19.1293 21.968C18.8413 21.968 18.5693 21.9733 18.3133 21.984C18.0572 21.984 17.8386 21.9893 17.6572 22L17.7212 21.68C18.0839 21.6587 18.3666 21.616 18.5693 21.552C18.7719 21.488 18.9319 21.36 19.0493 21.168C19.1666 20.976 19.2733 20.688 19.3693 20.304L21.4813 12.368C21.5559 12.048 21.5986 11.792 21.6093 11.6C21.6199 11.3973 21.5453 11.248 21.3853 11.152C21.2359 11.0453 20.9533 10.992 20.5373 10.992L20.6173 10.672C20.7986 10.6827 21.0119 10.6933 21.2573 10.704C21.5133 10.704 21.7853 10.7093 22.0733 10.72C22.3613 10.72 22.6279 10.72 22.8733 10.72C23.3319 10.72 23.7373 10.7147 24.0893 10.704C24.4519 10.6933 24.8146 10.688 25.1773 10.688ZM22.1853 16.256L22.2493 15.984H23.4333C24.0413 15.984 24.5586 15.8293 24.9853 15.52C25.4226 15.2 25.7533 14.784 25.9773 14.272C26.2119 13.76 26.3293 13.2213 26.3293 12.656C26.3293 12.1227 26.2226 11.712 26.0093 11.424C25.8066 11.136 25.4493 10.992 24.9373 10.992C24.5639 10.992 24.2973 11.0667 24.1373 11.216C23.9773 11.3547 23.8386 11.6587 23.7213 12.128L21.5613 20.304C21.4973 20.5707 21.4546 20.8053 21.4333 21.008C21.4226 21.2107 21.4759 21.3653 21.5933 21.472C21.7106 21.5787 21.9293 21.632 22.2493 21.632C23.0066 21.632 23.6253 21.488 24.1053 21.2C24.5853 20.912 24.9426 20.5173 25.1773 20.016C25.4119 19.504 25.5293 18.928 25.5293 18.288C25.5293 17.8933 25.4599 17.5467 25.3213 17.248C25.1933 16.9387 24.9853 16.6987 24.6973 16.528C24.4093 16.3467 24.0253 16.256 23.5453 16.256H22.1853Z" fill="#871BD7"/>
</g>
<defs>
<clipPath id="clip0_459_1532">
<rect width="32" height="32" fill="white"/>
</clipPath>
</defs>
</svg>
