<svg width="22" height="22" viewBox="0 0 24 24" fill="none" xmlns="http://www.w3.org/2000/svg">
<path d="M9.99536 9.75L11.9954 8.75L13.9954 9.75V5H9.99536V9.75ZM6.99536 17V15H11.9954V17H6.99536ZM4.99536 21C4.44536 21 3.97453 20.8042 3.58286 20.4125C3.19119 20.0208 2.99536 19.55 2.99536 19V5C2.99536 4.45 3.19119 3.97917 3.58286 3.5875C3.97453 3.19583 4.44536 3 4.99536 3H18.9954C19.5454 3 20.0162 3.19583 20.4079 3.5875C20.7995 3.97917 20.9954 4.45 20.9954 5V19C20.9954 19.55 20.7995 20.0208 20.4079 20.4125C20.0162 20.8042 19.5454 21 18.9954 21H4.99536ZM4.99536 19H18.9954V5H15.9954V13L11.9954 11L7.99536 13V5H4.99536V19Z" fill="#3D3D3D"/>
</svg>
