<svg width="54" height="54" viewBox="0 0 54 54" fill="none" xmlns="http://www.w3.org/2000/svg">
<path d="M37.4063 4.99499C37.1771 4.79927 36.9109 4.65161 36.6235 4.56074C36.3362 4.46988 36.0335 4.43768 35.7334 4.46604C35.4334 4.49441 35.1421 4.58277 34.8768 4.72588C34.6116 4.86898 34.3778 5.06392 34.1893 5.29912C34.0009 5.53432 33.8616 5.80498 33.7797 6.09504C33.6979 6.3851 33.6752 6.68865 33.7129 6.98767C33.7506 7.28669 33.848 7.57508 33.9993 7.83573C34.1507 8.09637 34.3528 8.32396 34.5938 8.50499L40.2188 13.005C40.6178 13.3245 41.1138 13.4986 41.625 13.4986C42.1362 13.4986 42.6322 13.3245 43.0313 13.005L48.6563 8.50499C49.1008 8.12538 49.3802 7.58767 49.4352 7.00569C49.4902 6.42371 49.3166 5.84317 48.951 5.38698C48.5855 4.93079 48.0568 4.63478 47.4768 4.56161C46.8968 4.48844 46.3111 4.64387 45.8438 4.99499L41.625 8.36999L37.4063 4.99499ZM27 8.99999C27.4407 8.99959 27.8717 9.1286 28.2397 9.37099C28.6077 9.61338 28.8964 9.95849 29.07 10.3635L42.5678 41.8635C42.7929 42.4101 42.794 43.0234 42.5706 43.5707C42.3472 44.1181 41.9173 44.5555 41.374 44.7885C40.8306 45.0214 40.2174 45.0312 39.6669 44.8156C39.1165 44.6 38.6729 44.1765 38.4323 43.6365L34.1955 33.75H19.8045L15.57 43.6365C15.3293 44.1765 14.8858 44.6 14.3353 44.8156C13.7849 45.0312 13.1717 45.0214 12.6283 44.7885C12.0849 44.5555 11.6551 44.1181 11.4317 43.5707C11.2083 43.0234 11.2093 42.4101 11.4345 41.8635L24.9345 10.3635C25.1078 9.95919 25.3958 9.61456 25.7629 9.37223C26.13 9.12989 26.5601 9.00047 27 8.99999ZM27 16.9627L21.735 29.2477H32.265L27 16.9627Z" fill="#6D1696"/>
</svg>
