<svg width="45" height="36" viewBox="0 0 45 36" fill="none" xmlns="http://www.w3.org/2000/svg">
<g clip-path="url(#clip0_260_60)">
<path d="M38.8421 -0.0354763C37.6472 -0.0531523 34.8715 0.352496 30.2372 3.45422C27.7114 2.82296 25.0239 2.51145 22.3319 2.51145C19.3699 2.51145 16.3766 2.88758 13.5852 3.65334C6.93153 -0.885796 3.99468 0.0444077 3.99468 0.0444077C2.07739 4.839 3.26219 8.38877 3.6223 9.27038C1.36881 11.7025 -0.00689697 14.8082 -0.00689697 18.6145C-0.00689697 21.4881 0.320163 24.0655 1.11922 26.306C1.16353 26.4789 1.14917 26.4404 1.22383 26.5884C1.39987 27.0522 1.59561 27.5024 1.8156 27.9372C1.89099 28.0937 1.9596 28.2095 1.9596 28.2095C4.20582 32.3966 8.63386 35.1013 16.5124 35.9505L28.4282 35.964C36.8303 35.1308 40.8621 32.4181 42.72 28.2027L42.8381 27.9282C43.0141 27.5024 43.1676 27.0594 43.5874 25.568C44.0071 24.0766 44.1949 21.4938 44.1949 18.6133C44.1949 14.4822 42.6433 11.1766 40.1236 8.66173C40.5639 7.24045 41.1521 4.08404 39.5363 0.0432557C39.5363 0.0432557 39.3097 -0.0285643 38.8422 -0.0355123L38.8421 -0.0354763ZM29.4519 15.1248C31.392 15.1206 33.054 15.4537 34.3017 16.7627V16.7639C35.863 18.4033 36.7767 20.3827 36.7767 22.5159C36.7767 32.4755 30.3711 32.7464 22.4703 32.7464C14.5681 32.7464 8.16388 31.3663 8.16388 22.5159C8.16388 20.3969 9.0642 18.4293 10.6062 16.7965C13.1785 14.0752 17.5314 15.5162 22.4703 15.5162C25.0055 15.5158 27.3866 15.1292 29.452 15.1247L29.4519 15.1248ZM14.7349 18.0576C13.0909 18.0576 11.7581 20.2803 11.7581 23.0233C11.7581 25.7667 13.0908 27.9901 14.7349 27.9901C16.3788 27.9901 17.7116 25.7667 17.7116 23.0233C17.7116 20.2807 16.3789 18.0596 14.7349 18.0576ZM30.7062 18.0576C29.0622 18.0576 27.7295 20.2803 27.7295 23.0233C27.7295 25.7667 29.0622 27.9901 30.7062 27.9901C32.3502 27.9901 33.6829 25.7667 33.6829 23.0233C33.6829 20.2807 32.3503 18.0596 30.7062 18.0576Z" fill="#F5F5F5"/>
</g>
<defs>
<clipPath id="clip0_260_60">
<rect width="44.2022" height="36" fill="white"/>
</clipPath>
</defs>
</svg>
