<svg width="54" height="54" viewBox="0 0 54 54" fill="none" xmlns="http://www.w3.org/2000/svg">
<path d="M37.4063 13.0051C36.9389 13.3562 36.3532 13.5116 35.7733 13.4384C35.1933 13.3653 34.6646 13.0693 34.299 12.6131C33.9335 12.1569 33.7599 11.5763 33.8149 10.9944C33.8699 10.4124 34.1493 9.87466 34.5938 9.49506L40.2188 4.99506C40.6179 4.67555 41.1139 4.50146 41.6251 4.50146C42.1363 4.50146 42.6322 4.67555 43.0313 4.99506L48.6563 9.49506C49.1009 9.87466 49.3802 10.4124 49.4353 10.9944C49.4903 11.5763 49.3166 12.1569 48.9511 12.6131C48.5856 13.0693 48.0568 13.3653 47.4769 13.4384C46.8969 13.5116 46.3112 13.3562 45.8438 13.0051L41.6251 9.63006L37.4063 13.0051ZM29.0678 10.3636C28.8943 9.95902 28.6059 9.61427 28.2383 9.37202C27.8708 9.12976 27.4403 9.00064 27.0001 9.00064C26.5599 9.00064 26.1293 9.12976 25.7618 9.37202C25.3943 9.61427 25.1059 9.95902 24.9323 10.3636L11.4323 41.8636C11.2071 42.4102 11.2061 43.0235 11.4295 43.5708C11.6529 44.1182 12.0828 44.5556 12.6261 44.7886C13.1695 45.0215 13.7827 45.0312 14.3331 44.8157C14.8836 44.6001 15.3271 44.1765 15.5678 43.6366L19.8068 33.7501H34.1956L38.4323 43.6366C38.673 44.1765 39.1165 44.6001 39.667 44.8157C40.2175 45.0312 40.8307 45.0215 41.374 44.7886C41.9174 44.5556 42.3472 44.1182 42.5706 43.5708C42.794 43.0235 42.793 42.4102 42.5678 41.8636L29.0678 10.3636ZM27.0001 16.9651L32.2651 29.2501H21.7351L27.0001 16.9651Z" fill="#6D1696"/>
</svg>
