<svg width="36" height="36" viewBox="0 0 36 36" fill="none" xmlns="http://www.w3.org/2000/svg">
<g clip-path="url(#clip0_260_57)">
<path d="M26.9769 0.0394287H9.02314C4.07674 0.0394287 0.0524445 4.05019 0.0524445 8.97996V27.0199C0.0524445 31.9494 4.07674 35.9606 9.02314 35.9606H26.9769C31.9233 35.9606 35.9475 31.9493 35.9475 27.0199V8.97992C35.9475 4.05019 31.9233 0.0394287 26.9769 0.0394287ZM32.6251 27.0198C32.6251 30.1235 30.0915 32.6491 26.977 32.6491H9.02318C5.90867 32.6491 3.37496 30.1235 3.37496 27.0198V15.3685H10.4722C9.95406 16.4645 9.66265 17.6871 9.66265 18.9764C9.66265 23.6594 13.4851 27.4687 18.1837 27.4687C22.8822 27.4687 26.7047 23.6594 26.7047 18.9764C26.7047 17.6871 26.4133 16.4644 25.8951 15.3685H32.6251V27.0198H32.6251ZM14.6464 18.9764C14.6464 17.0328 16.2332 15.4512 18.1837 15.4512C20.1344 15.4512 21.721 17.0328 21.721 18.9764C21.721 20.9205 20.1344 22.5018 18.1837 22.5018C16.2332 22.5017 14.6464 20.9205 14.6464 18.9764ZM32.6251 12.0573H23.1149C21.7216 11.0684 20.0205 10.4843 18.1837 10.4843C16.3469 10.4843 14.6456 11.0684 13.2527 12.0573H3.37496V8.97996C3.37496 5.87593 5.90867 3.35074 9.02318 3.35074H26.977C30.0915 3.35074 32.6251 5.87593 32.6251 8.97996V12.0573ZM29.0249 5.359H25.9451C25.3968 5.359 24.9484 5.80605 24.9484 6.35239V9.42196C24.9484 9.96826 25.3967 10.4153 25.9451 10.4153H29.0249C29.5732 10.4153 30.0217 9.96826 30.0217 9.42196V6.35239C30.0217 5.80605 29.5733 5.359 29.0249 5.359Z" fill="#F5F5F5"/>
</g>
<defs>
<clipPath id="clip0_260_57">
<rect width="36" height="36" fill="white"/>
</clipPath>
</defs>
</svg>
