<svg width="36" height="36" viewBox="0 0 36 36" fill="none" xmlns="http://www.w3.org/2000/svg">
<g clip-path="url(#clip0_260_53)">
<path d="M7.0583 0.0090332C3.18049 0.0090332 0.00672913 3.18272 0.00672913 7.06061V28.9429C0.00672913 32.8207 3.18042 35.9933 7.0583 35.9933H28.9406C32.8184 35.9933 35.991 32.8207 35.991 28.9429V7.06061C35.991 3.18279 32.8184 0.0090332 28.9406 0.0090332H7.0583ZM8.83188 5.94716C10.6912 5.94716 11.8365 7.16778 11.8718 8.77226C11.8718 10.3413 10.6911 11.5962 8.79591 11.5962H8.76103C6.93709 11.5962 5.7582 10.3414 5.7582 8.77226C5.7582 7.16781 6.97277 5.94716 8.83184 5.94716H8.83188ZM24.8548 13.4463C28.4306 13.4463 31.1112 15.7835 31.1112 20.806V30.1822H25.6769V21.4347C25.6769 19.2365 24.8904 17.7368 22.9238 17.7368C21.4224 17.7368 20.5275 18.7476 20.1346 19.7241C19.9911 20.0734 19.9558 20.5613 19.9558 21.05V30.1822H14.5215C14.5215 30.1822 14.5928 15.3641 14.5215 13.8298H19.9569V16.1455C20.6791 15.0313 21.9708 13.4463 24.8548 13.4463V13.4463ZM6.07874 13.831H11.5131V30.1823H6.07874V13.831Z" fill="#F0F0F0"/>
</g>
<defs>
<clipPath id="clip0_260_53">
<rect width="36" height="36" fill="white"/>
</clipPath>
</defs>
</svg>
