<svg width="34" height="34" viewBox="0 0 34 34" fill="none" xmlns="http://www.w3.org/2000/svg">
<path d="M13.704 22.5937C11.1635 22.5937 9.01349 21.7138 7.25382 19.9542C5.49415 18.1945 4.61432 16.0444 4.61432 13.504C4.61432 10.9635 5.49415 8.81348 7.25382 7.05381C9.01349 5.29414 11.1635 4.41431 13.704 4.41431C16.2444 4.41431 18.3945 5.29414 20.1542 7.05381C21.9138 8.81348 22.7937 10.9635 22.7937 13.504C22.7937 14.5295 22.6305 15.4967 22.3042 16.4057C21.9779 17.3147 21.5351 18.1187 20.9757 18.8179L28.8068 26.6491C29.0632 26.9054 29.1914 27.2317 29.1914 27.6279C29.1914 28.0242 29.0632 28.3505 28.8068 28.6068C28.5505 28.8632 28.2242 28.9914 27.828 28.9914C27.4317 28.9914 27.1054 28.8632 26.8491 28.6068L19.018 20.7757C18.3188 21.3351 17.5147 21.7779 16.6057 22.1042C15.6967 22.4305 14.7295 22.5937 13.704 22.5937ZM13.704 19.7968C15.452 19.7968 16.9378 19.185 18.1614 17.9614C19.385 16.7378 19.9968 15.252 19.9968 13.504C19.9968 11.756 19.385 10.2702 18.1614 9.04655C16.9378 7.82294 15.452 7.21113 13.704 7.21113C11.956 7.21113 10.4702 7.82294 9.24656 9.04655C8.02295 10.2702 7.41114 11.756 7.41114 13.504C7.41114 15.252 8.02295 16.7378 9.24656 17.9614C10.4702 19.185 11.956 19.7968 13.704 19.7968Z" fill="#170942"/>
</svg>
