<svg width="33" height="32" viewBox="0 0 33 32" fill="none" xmlns="http://www.w3.org/2000/svg">
<path d="M12.1605 22.4333L16.3605 19.9L20.5605 22.4667L19.4605 17.6667L23.1605 14.4667L18.2938 14.0333L16.3605 9.5L14.4271 14L9.56048 14.4333L13.2605 17.6667L12.1605 22.4333ZM16.3605 23.0333L10.8271 26.3667C10.5827 26.5222 10.3271 26.5889 10.0605 26.5667C9.79381 26.5444 9.56048 26.4556 9.36048 26.3C9.16048 26.1444 9.00492 25.95 8.89381 25.7167C8.7827 25.4833 8.76048 25.2222 8.82714 24.9333L10.2938 18.6333L5.39381 14.4C5.17159 14.2 5.0327 13.9722 4.97714 13.7167C4.92159 13.4611 4.93825 13.2111 5.02714 12.9667C5.11603 12.7222 5.24936 12.5222 5.42714 12.3667C5.60492 12.2111 5.84936 12.1111 6.16048 12.0667L12.6271 11.5L15.1271 5.56667C15.2383 5.3 15.4105 5.1 15.6438 4.96667C15.8771 4.83333 16.116 4.76667 16.3605 4.76667C16.6049 4.76667 16.8438 4.83333 17.0771 4.96667C17.3105 5.1 17.4827 5.3 17.5938 5.56667L20.0938 11.5L26.5605 12.0667C26.8716 12.1111 27.116 12.2111 27.2938 12.3667C27.4716 12.5222 27.6049 12.7222 27.6938 12.9667C27.7827 13.2111 27.7994 13.4611 27.7438 13.7167C27.6883 13.9722 27.5494 14.2 27.3271 14.4L22.4271 18.6333L23.8938 24.9333C23.9605 25.2222 23.9383 25.4833 23.8271 25.7167C23.716 25.95 23.5605 26.1444 23.3605 26.3C23.1605 26.4556 22.9271 26.5444 22.6605 26.5667C22.3938 26.5889 22.1383 26.5222 21.8938 26.3667L16.3605 23.0333Z" fill="#371054"/>
</svg>
