<svg width="104" height="24" viewBox="0 0 104 24" fill="none" xmlns="http://www.w3.org/2000/svg">
<path d="M92.0171 7.12495V14.925L95.0601 16.85L94.2631 13.25L96.9439 10.85L93.4179 10.525L92.0171 7.12495ZM92.0171 17.275L88.008 19.775C87.8309 19.8916 87.6458 19.9416 87.4526 19.9249C87.2594 19.9083 87.0903 19.8416 86.9454 19.725C86.8005 19.6083 86.6878 19.4625 86.6073 19.2874C86.5268 19.1125 86.5107 18.9166 86.559 18.7L87.6216 13.975L84.0714 10.8C83.9104 10.65 83.8098 10.4791 83.7696 10.2875C83.7293 10.0958 83.7414 9.90828 83.8058 9.72495C83.8702 9.54162 83.9668 9.39162 84.0956 9.27495C84.2244 9.15828 84.4015 9.08328 84.6269 9.04995L89.3122 8.62495L91.1235 4.17495C91.204 3.97495 91.3288 3.82495 91.4979 3.72495C91.6669 3.62495 91.84 3.57495 92.0171 3.57495C92.1942 3.57495 92.3673 3.62495 92.5364 3.72495C92.7054 3.82495 92.8302 3.97495 92.9107 4.17495L94.722 8.62495L99.4073 9.04995C99.6327 9.08328 99.8098 9.15828 99.9386 9.27495C100.067 9.39162 100.164 9.54162 100.228 9.72495C100.293 9.90828 100.305 10.0958 100.265 10.2875C100.224 10.4791 100.124 10.65 99.9628 10.8L96.4126 13.975L97.4752 18.7C97.5235 18.9166 97.5074 19.1125 97.4269 19.2874C97.3464 19.4625 97.2337 19.6083 97.0888 19.725C96.9439 19.8416 96.7748 19.9083 96.5816 19.9249C96.3884 19.9416 96.2033 19.8916 96.0262 19.775L92.0171 17.275Z" fill="#371054"/>
<path d="M32.2892 16.2993L28.5898 19.1238C28.4065 19.2738 28.2065 19.3448 27.9899 19.3368C27.7732 19.3288 27.5816 19.2661 27.415 19.1488C27.2483 19.0315 27.1193 18.8732 27.028 18.6739C26.9367 18.4746 26.9324 18.2579 27.015 18.024L28.4398 13.3997L24.8154 10.8251C24.6154 10.6918 24.4904 10.5169 24.4404 10.3002C24.3904 10.0836 24.3988 9.88363 24.4654 9.70032C24.5321 9.51702 24.6487 9.35438 24.8154 9.2124C24.982 9.07042 25.182 8.99977 25.4153 9.00043H29.8896L31.3393 4.20121C31.4226 3.96791 31.552 3.78861 31.7273 3.66329C31.9026 3.53798 32.0899 3.47566 32.2892 3.47632C32.4885 3.47699 32.6761 3.53965 32.8521 3.66429C33.028 3.78894 33.157 3.96791 33.239 4.20121L34.6888 9.00043H39.1631C39.3964 9.00043 39.5963 9.07142 39.763 9.2134C39.9296 9.35538 40.0463 9.51768 40.1129 9.70032C40.1796 9.88296 40.1879 10.0829 40.1379 10.3002C40.0879 10.5175 39.9629 10.6925 39.763 10.8251L36.1385 13.3997L37.5633 18.024C37.6466 18.2573 37.6426 18.4739 37.5513 18.6739C37.46 18.8738 37.3307 19.0322 37.1634 19.1488C36.9961 19.2654 36.8044 19.3281 36.5885 19.3368C36.3725 19.3454 36.1725 19.2744 35.9886 19.1238L32.2892 16.2993Z" fill="#371054"/>
<path d="M52.2853 16.2993L48.5859 19.1238C48.4026 19.2738 48.2026 19.3448 47.986 19.3368C47.7693 19.3288 47.5777 19.2661 47.411 19.1488C47.2444 19.0315 47.1154 18.8732 47.0241 18.6739C46.9328 18.4746 46.9285 18.2579 47.0111 18.024L48.4359 13.3997L44.8115 10.8251C44.6115 10.6918 44.4865 10.5169 44.4365 10.3002C44.3865 10.0836 44.3949 9.88363 44.4615 9.70032C44.5282 9.51702 44.6448 9.35438 44.8115 9.2124C44.9781 9.07042 45.1781 8.99977 45.4114 9.00043H49.8856L51.3354 4.20121C51.4187 3.96791 51.548 3.78861 51.7234 3.66329C51.8987 3.53798 52.086 3.47566 52.2853 3.47632C52.4846 3.47699 52.6722 3.53965 52.8482 3.66429C53.0241 3.78894 53.1531 3.96791 53.2351 4.20121L54.6849 9.00043H59.1592C59.3925 9.00043 59.5924 9.07142 59.7591 9.2134C59.9257 9.35538 60.0423 9.51768 60.109 9.70032C60.1757 9.88296 60.184 10.0829 60.134 10.3002C60.084 10.5175 59.959 10.6925 59.7591 10.8251L56.1346 13.3997L57.5594 18.024C57.6427 18.2573 57.6387 18.4739 57.5474 18.6739C57.4561 18.8738 57.3268 19.0322 57.1595 19.1488C56.9922 19.2654 56.8005 19.3281 56.5846 19.3368C56.3686 19.3454 56.1686 19.2744 55.9847 19.1238L52.2853 16.2993Z" fill="#371054"/>
<path d="M72.2814 16.2993L68.582 19.1238C68.3986 19.2738 68.1987 19.3448 67.982 19.3368C67.7654 19.3288 67.5738 19.2661 67.4071 19.1488C67.2405 19.0315 67.1115 18.8732 67.0202 18.6739C66.9289 18.4746 66.9246 18.2579 67.0072 18.024L68.432 13.3997L64.8076 10.8251C64.6076 10.6918 64.4826 10.5169 64.4326 10.3002C64.3826 10.0836 64.391 9.88363 64.4576 9.70032C64.5243 9.51702 64.6409 9.35438 64.8076 9.2124C64.9742 9.07042 65.1742 8.99977 65.4075 9.00043H69.8817L71.3315 4.20121C71.4148 3.96791 71.5441 3.78861 71.7194 3.66329C71.8948 3.53798 72.0821 3.47566 72.2814 3.47632C72.4807 3.47699 72.6683 3.53965 72.8443 3.66429C73.0202 3.78894 73.1492 3.96791 73.2312 4.20121L74.681 9.00043H79.1552C79.3885 9.00043 79.5885 9.07142 79.7552 9.2134C79.9218 9.35538 80.0384 9.51768 80.1051 9.70032C80.1718 9.88296 80.1801 10.0829 80.1301 10.3002C80.0801 10.5175 79.9551 10.6925 79.7552 10.8251L76.1307 13.3997L77.5555 18.024C77.6388 18.2573 77.6348 18.4739 77.5435 18.6739C77.4522 18.8738 77.3229 19.0322 77.1556 19.1488C76.9883 19.2654 76.7966 19.3281 76.5807 19.3368C76.3647 19.3454 76.1647 19.2744 75.9808 19.1238L72.2814 16.2993Z" fill="#371054"/>
<path d="M12.2931 16.2993L8.59367 19.1238C8.41037 19.2738 8.2104 19.3448 7.99377 19.3368C7.77713 19.3288 7.5855 19.2661 7.41886 19.1488C7.25222 19.0315 7.12324 18.8732 7.03192 18.6739C6.9406 18.4746 6.93627 18.2579 7.01892 18.024L8.44369 13.3997L4.81928 10.8251C4.61931 10.6918 4.49433 10.5169 4.44434 10.3002C4.39435 10.0836 4.40268 9.88363 4.46933 9.70032C4.53599 9.51702 4.65264 9.35438 4.81928 9.2124C4.98592 9.07042 5.18589 8.99977 5.41918 9.00043H9.89346L11.3432 4.20121C11.4265 3.96791 11.5559 3.78861 11.7312 3.66329C11.9065 3.53798 12.0938 3.47566 12.2931 3.47632C12.4924 3.47699 12.68 3.53965 12.856 3.66429C13.032 3.78894 13.1609 3.96791 13.2429 4.20121L14.6927 9.00043H19.167C19.4003 9.00043 19.6002 9.07142 19.7669 9.2134C19.9335 9.35538 20.0502 9.51768 20.1168 9.70032C20.1835 9.88296 20.1918 10.0829 20.1418 10.3002C20.0918 10.5175 19.9668 10.6925 19.7669 10.8251L16.1425 13.3997L17.5672 18.024C17.6505 18.2573 17.6465 18.4739 17.5552 18.6739C17.4639 18.8738 17.3346 19.0322 17.1673 19.1488C17 19.2654 16.8083 19.3281 16.5924 19.3368C16.3764 19.3454 16.1764 19.2744 15.9925 19.1238L12.2931 16.2993Z" fill="#371054"/>
</svg>
