<svg width="40" height="40" viewBox="0 0 40 40" fill="none" xmlns="http://www.w3.org/2000/svg">
<path d="M11.6667 36.6666C10.75 36.6666 9.9653 36.3403 9.31252 35.6875C8.65974 35.0347 8.33335 34.25 8.33335 33.3333C8.33335 32.4166 8.65974 31.6319 9.31252 30.9791C9.9653 30.3264 10.75 30 11.6667 30C12.5834 30 13.3681 30.3264 14.0209 30.9791C14.6736 31.6319 15 32.4166 15 33.3333C15 34.25 14.6736 35.0347 14.0209 35.6875C13.3681 36.3403 12.5834 36.6666 11.6667 36.6666ZM28.3334 36.6666C27.4167 36.6666 26.632 36.3403 25.9792 35.6875C25.3264 35.0347 25 34.25 25 33.3333C25 32.4166 25.3264 31.6319 25.9792 30.9791C26.632 30.3264 27.4167 30 28.3334 30C29.25 30 30.0347 30.3264 30.6875 30.9791C31.3403 31.6319 31.6667 32.4166 31.6667 33.3333C31.6667 34.25 31.3403 35.0347 30.6875 35.6875C30.0347 36.3403 29.25 36.6666 28.3334 36.6666ZM10.25 9.99998L14.25 18.3333H25.9167L30.5 9.99998H10.25ZM8.66669 6.66665H33.25C33.8889 6.66665 34.375 6.95137 34.7084 7.52081C35.0417 8.09026 35.0556 8.66665 34.75 9.24998L28.8334 19.9166C28.5278 20.4722 28.1181 20.9028 27.6042 21.2083C27.0903 21.5139 26.5278 21.6666 25.9167 21.6666H13.5L11.6667 25H31.6667V28.3333H11.6667C10.4167 28.3333 9.47224 27.7847 8.83335 26.6875C8.19447 25.5903 8.16669 24.5 8.75002 23.4166L11 19.3333L5.00002 6.66665H1.66669V3.33331H7.08335L8.66669 6.66665Z" fill="url(#paint0_linear_260_76)"/>
<defs>
<linearGradient id="paint0_linear_260_76" x1="18.318" y1="3.33331" x2="18.318" y2="36.6666" gradientUnits="userSpaceOnUse">
<stop stop-color="#371054"/>
<stop offset="1" stop-color="#6F00C0"/>
</linearGradient>
</defs>
</svg>
