<svg width="40" height="40" viewBox="0 0 40 40" fill="none" xmlns="http://www.w3.org/2000/svg">
<path d="M8.33335 31.6666C7.86113 31.6666 7.4653 31.5069 7.14585 31.1875C6.82641 30.868 6.66669 30.4722 6.66669 30C6.66669 29.5278 6.82641 29.1319 7.14585 28.8125C7.4653 28.493 7.86113 28.3333 8.33335 28.3333H10V16.6666C10 14.3611 10.6945 12.3125 12.0834 10.5208C13.4722 8.72915 15.2778 7.55553 17.5 6.99998V5.83331C17.5 5.13887 17.7431 4.54859 18.2292 4.06248C18.7153 3.57637 19.3056 3.33331 20 3.33331C20.6945 3.33331 21.2847 3.57637 21.7709 4.06248C22.257 4.54859 22.5 5.13887 22.5 5.83331V6.99998C24.7222 7.55553 26.5278 8.72915 27.9167 10.5208C29.3056 12.3125 30 14.3611 30 16.6666V28.3333H31.6667C32.1389 28.3333 32.5347 28.493 32.8542 28.8125C33.1736 29.1319 33.3334 29.5278 33.3334 30C33.3334 30.4722 33.1736 30.868 32.8542 31.1875C32.5347 31.5069 32.1389 31.6666 31.6667 31.6666H8.33335ZM20 36.6666C19.0834 36.6666 18.2986 36.3403 17.6459 35.6875C16.9931 35.0347 16.6667 34.25 16.6667 33.3333H23.3334C23.3334 34.25 23.007 35.0347 22.3542 35.6875C21.7014 36.3403 20.9167 36.6666 20 36.6666ZM13.3334 28.3333H26.6667V16.6666C26.6667 14.8333 26.0139 13.2639 24.7084 11.9583C23.4028 10.6528 21.8334 9.99998 20 9.99998C18.1667 9.99998 16.5972 10.6528 15.2917 11.9583C13.9861 13.2639 13.3334 14.8333 13.3334 16.6666V28.3333Z" fill="url(#paint0_linear_260_63)"/>
<defs>
<linearGradient id="paint0_linear_260_63" x1="20" y1="3.33331" x2="20" y2="36.6666" gradientUnits="userSpaceOnUse">
<stop stop-color="#371054"/>
<stop offset="1" stop-color="#6F00C0"/>
</linearGradient>
</defs>
</svg>
