<svg width="20" height="20" viewBox="0 0 20 20" fill="none" xmlns="http://www.w3.org/2000/svg">
<path d="M9.99992 16.5833C11.3471 16.1667 12.4721 15.3437 13.3749 14.1146C14.2777 12.8854 14.8055 11.5139 14.9583 9.99999H9.99992V3.43749L4.99992 5.31249V9.62499C4.99992 9.72221 5.01381 9.84721 5.04159 9.99999H9.99992V16.5833ZM9.99992 18.25C9.9027 18.25 9.81242 18.243 9.72908 18.2292C9.64575 18.2153 9.56242 18.1944 9.47908 18.1667C7.60408 17.5417 6.11103 16.3854 4.99992 14.6979C3.88881 13.0104 3.33325 11.1944 3.33325 9.24999V5.31249C3.33325 4.96527 3.43395 4.65277 3.63534 4.37499C3.83672 4.09721 4.09714 3.89582 4.41659 3.77082L9.41658 1.89582C9.61103 1.82638 9.80547 1.79166 9.99992 1.79166C10.1944 1.79166 10.3888 1.82638 10.5833 1.89582L15.5833 3.77082C15.9027 3.89582 16.1631 4.09721 16.3645 4.37499C16.5659 4.65277 16.6666 4.96527 16.6666 5.31249V9.24999C16.6666 11.1944 16.111 13.0104 14.9999 14.6979C13.8888 16.3854 12.3958 17.5417 10.5208 18.1667C10.4374 18.1944 10.3541 18.2153 10.2708 18.2292C10.1874 18.243 10.0971 18.25 9.99992 18.25Z" fill="#A2EF8F"/>
</svg>
